<svg width="24" height="22" viewBox="0 0 24 22" fill="none" xmlns="http://www.w3.org/2000/svg">
<path fill-rule="evenodd" clip-rule="evenodd" d="M6.27237 21.5H2.40504C1.5924 21.5 1.19099 21.5 0.946238 21.3389C0.681876 21.1626 0.520335 20.8705 0.500753 20.5482C0.486053 20.2512 0.686786 19.8885 1.0882 19.1633L10.6371 1.84839C11.0434 1.11313 11.249 0.745493 11.5085 0.609528C11.7875 0.463491 12.1204 0.463491 12.3994 0.609528C12.6589 0.745493 12.8645 1.11313 13.2708 1.84839L15.2339 5.3736L15.2439 5.39159C15.6827 6.18038 15.9053 6.58039 16.0024 7.00021C16.1101 7.4585 16.1101 7.94195 16.0024 8.40024C15.9045 8.82325 15.6842 9.22615 15.2387 10.0269L10.2229 19.1482L10.21 19.1715C9.76821 19.9668 9.54434 20.3699 9.23407 20.674C8.89629 21.0065 8.48997 21.2481 8.04449 21.3843C7.63817 21.5 7.18292 21.5 6.27237 21.5ZM16.0386 21.5H21.5801C22.3976 21.5 22.8089 21.5 23.0538 21.334C23.3181 21.1577 23.4844 20.8604 23.4993 20.5383C23.5134 20.2509 23.317 19.9023 22.9323 19.2193C22.919 19.196 22.9057 19.1724 22.8922 19.1483L20.1164 14.2634L20.0849 14.2084C19.6948 13.5298 19.4979 13.1872 19.245 13.0547C18.9662 12.9086 18.6379 12.9086 18.359 13.0547C18.1045 13.1907 17.8989 13.5482 17.4926 14.2684L14.7267 19.1533L14.7172 19.1701C14.3123 19.8891 14.11 20.2484 14.1246 20.5432C14.1441 20.8656 14.3057 21.1626 14.57 21.3389C14.8099 21.5 15.2211 21.5 16.0386 21.5Z" fill="#667085"/>
</svg>
