<svg width="24" height="26" viewBox="0 0 24 26" fill="none" xmlns="http://www.w3.org/2000/svg">
<path fill-rule="evenodd" clip-rule="evenodd" d="M13.5 9.16834L18 6.53015V11.8065L13.5 9.16834ZM18 20.4749L12 23.9925L6 20.4749V14.3191L12 17.8367L18 14.3191V20.4749ZM6 6.53015L10.5 9.16834L6 11.8065V6.53015ZM12.75 10.4246L17.25 13.0628L12.75 15.701V10.4246ZM11.25 15.701L6.75 13.0628L11.25 10.4246V15.701ZM17.25 5.27387L12 8.28894L6.75 5.27387L12 2.13317L17.25 5.27387ZM4.5 4.77136V21.2286L12 25.5L19.5 21.2286V4.77136L12 0.5L4.5 4.77136Z" fill="#ffffff"/>
</svg>
