<svg width="20" height="16" viewBox="0 0 20 16" fill="none" xmlns="http://www.w3.org/2000/svg">
<path d="M15.0922 4.88795C14.7233 4.685 14.2435 4.685 13.8377 4.88795L10.9594 6.44398L9.0037 7.45878L6.12548 9.0148C5.75646 9.21776 5.27677 9.21776 4.87085 9.0148L2.58302 7.79705C2.21403 7.59409 1.95574 7.22199 1.95574 6.81605V4.41438C1.95574 4.00847 2.17713 3.63636 2.58302 3.43341L4.83395 2.24946C5.20294 2.04651 5.68266 2.04651 6.08858 2.24946L8.33948 3.43341C8.7085 3.63636 8.9668 4.00847 8.9668 4.41438V5.9704L10.9225 4.92176V3.36574C10.9225 2.95983 10.7011 2.58773 10.2952 2.38477L6.12548 0.152216C5.75646 -0.0507386 5.27677 -0.0507386 4.87085 0.152216L0.627314 2.38477C0.221394 2.58773 0 2.95983 0 3.36574V7.86469C0 8.2706 0.221394 8.6427 0.627314 8.84565L4.87085 11.0782C5.23987 11.2812 5.71956 11.2812 6.12548 11.0782L9.0037 9.55602L10.9594 8.50739L13.8377 6.9852C14.2066 6.78224 14.6864 6.78224 15.0922 6.9852L17.3432 8.16912C17.7122 8.3721 17.9705 8.74418 17.9705 9.15011V11.5518C17.9705 11.9577 17.7491 12.3298 17.3432 12.5328L15.0922 13.7505C14.7233 13.9535 14.2435 13.9535 13.8377 13.7505L11.5867 12.5666C11.2177 12.3636 10.9594 11.9915 10.9594 11.5856V10.0296L9.0037 11.0782V12.6342C9.0037 13.0402 9.22509 13.4123 9.63101 13.6152L13.8745 15.8478C14.2435 16.0507 14.7233 16.0507 15.1291 15.8478L19.3727 13.6152C19.7417 13.4123 20 13.0402 20 12.6342V8.13531C20 7.72937 19.7786 7.3573 19.3727 7.15432L15.0922 4.88795Z" fill="#667085"/>
</svg>
