<svg width="19" height="18" viewBox="0 0 19 18" fill="none" xmlns="http://www.w3.org/2000/svg">
<path d="M17.616 3.48L17.63 3.463L13.63 0.223L12.37 1.777L14.437 3.451C13.9248 3.76219 13.5179 4.22014 13.2691 4.76543C13.0204 5.31072 12.9412 5.91818 13.042 6.509C13.191 7.408 13.808 8.185 14.607 8.621C15.504 9.111 16.292 9.067 16.991 8.818L16.976 15C16.9772 15.1656 16.9371 15.3289 16.8593 15.475C16.7816 15.6212 16.6686 15.7457 16.5306 15.8373C16.3926 15.9288 16.2339 15.9845 16.069 15.9993C15.9041 16.0141 15.7381 15.9875 15.586 15.922C15.4669 15.8711 15.3589 15.7973 15.268 15.705C15.1756 15.6124 15.1023 15.5024 15.0523 15.3815C15.0024 15.2605 14.9768 15.1309 14.977 15L15 13C15.001 12.6064 14.924 12.2165 14.7735 11.8528C14.623 11.4891 14.4019 11.1588 14.123 10.881C13.8444 10.6018 13.5135 10.3803 13.1492 10.2291C12.7849 10.0779 12.3944 10.0001 12 10H11V2C11 0.897 10.103 0 9 0H2C0.897 0 0 0.897 0 2V16C0 17.103 0.897 18 2 18H9C10.103 18 11 17.103 11 16V12H12C12.136 12 12.267 12.027 12.391 12.078C12.629 12.1822 12.8187 12.3726 12.922 12.611C12.9739 12.7341 13.0004 12.8664 13 13L12.976 15C12.976 15.406 13.055 15.799 13.212 16.168C13.363 16.527 13.58 16.848 13.853 17.119C14.1306 17.3995 14.4613 17.6219 14.8258 17.7732C15.1903 17.9245 15.5813 18.0016 15.976 18C16.382 18 16.774 17.922 17.144 17.764C17.502 17.614 17.824 17.397 18.095 17.123C18.375 16.845 18.597 16.5142 18.7482 16.1498C18.8994 15.7853 18.9768 15.3945 18.976 15L19 6C18.999 5.49762 18.8717 5.00355 18.6299 4.56321C18.3881 4.12287 18.0394 3.75038 17.616 3.48ZM2 2H9L9.001 6H2V2ZM2 16V8H9.001L9.002 16H2ZM16 7C15.7348 7 15.4804 6.89464 15.2929 6.70711C15.1054 6.51957 15 6.26522 15 6C15 5.73478 15.1054 5.48043 15.2929 5.29289C15.4804 5.10536 15.7348 5 16 5C16.2652 5 16.5196 5.10536 16.7071 5.29289C16.8946 5.48043 17 5.73478 17 6C17 6.26522 16.8946 6.51957 16.7071 6.70711C16.5196 6.89464 16.2652 7 16 7Z" fill="#D0D5DD"/>
</svg>
