<svg width="70" height="75" viewBox="0 0 70 75" fill="none" xmlns="http://www.w3.org/2000/svg">
<path d="M45.5 16.948C45.5 25.4819 38.56 32.4006 30 32.4006C21.44 32.4006 14.5 25.4819 14.5 16.948C14.5 8.4142 21.44 1.49542 30 1.49542C38.56 1.49542 45.5 8.4142 45.5 16.948Z" fill="#A6D9D6"/>
<path d="M30.25 33.8961C21.015 33.8961 13.5 26.404 13.5 17.1973C13.5 7.9905 21.015 0.498474 30.25 0.498474C39.485 0.498474 47 7.9905 47 17.1973C47 26.404 39.485 33.8961 30.25 33.8961ZM30.25 2.99083C22.395 2.99083 16 9.36628 16 17.1973C16 25.0332 22.395 31.4037 30.25 31.4037C38.11 31.4037 44.5 25.0332 44.5 17.1973C44.5 9.36628 38.11 2.99083 30.25 2.99083Z" fill="#5EBAB6"/>
<path d="M42.072 18.7166C42.9985 12.1217 38.387 6.02674 31.7719 5.10308C25.1568 4.17941 19.0432 8.77682 18.1167 15.3717C17.1902 21.9666 21.8017 28.0615 28.4168 28.9852C35.0319 29.9089 41.1455 25.3114 42.072 18.7166Z" fill="#A6D9D6"/>
<path d="M30.345 29.5992C23.26 29.5992 17.5 23.8568 17.5 16.7935C17.5 9.73015 23.26 3.98776 30.345 3.98776C37.43 3.98776 43.19 9.73015 43.19 16.7935C43.19 23.8568 37.43 29.5992 30.345 29.5992ZM30.345 5.48318C24.09 5.48318 19 10.5576 19 16.7935C19 23.0294 24.09 28.1038 30.345 28.1038C36.6 28.1038 41.69 23.0294 41.69 16.7935C41.69 10.5576 36.6 5.48318 30.345 5.48318Z" fill="#5EBAB6"/>
<path d="M68 30.9052C68 39.4391 61.06 46.3579 52.5 46.3579C43.94 46.3579 37 39.4391 37 30.9052C37 22.3714 43.94 15.4526 52.5 15.4526C61.06 15.4526 68 22.3714 68 30.9052Z" fill="#A6D9D6"/>
<path d="M52.75 47.3548C43.515 47.3548 36 39.8628 36 30.656C36 21.4492 43.515 13.9572 52.75 13.9572C61.985 13.9572 69.5 21.4492 69.5 30.656C69.5 39.8628 61.985 47.3548 52.75 47.3548ZM52.75 16.4496C44.895 16.4496 38.5 22.825 38.5 30.656C38.5 38.492 44.895 44.8624 52.75 44.8624C60.61 44.8624 67 38.487 67 30.656C67 22.825 60.61 16.4496 52.75 16.4496Z" fill="#5EBAB6"/>
<path d="M64.69 30.9999C64.69 37.6595 59.275 43.0579 52.595 43.0579C45.915 43.0579 40.5 37.6595 40.5 30.9999C40.5 24.3403 45.915 18.9419 52.595 18.9419C59.275 18.9419 64.69 24.3403 64.69 30.9999Z" fill="#A6D9D6"/>
<path d="M52.845 43.5564C45.76 43.5564 40 37.814 40 30.7507C40 23.6873 45.76 17.9449 52.845 17.9449C59.93 17.9449 65.69 23.6873 65.69 30.7507C65.69 37.814 59.93 43.5564 52.845 43.5564ZM52.845 19.4404C46.59 19.4404 41.5 24.5148 41.5 30.7507C41.5 36.9865 46.59 42.061 52.845 42.061C59.1 42.061 64.19 36.9865 64.19 30.7507C64.19 24.5148 59.1 19.4404 52.845 19.4404Z" fill="#5EBAB6"/>
<path d="M33 39.8777C33 48.4116 26.06 55.3303 17.5 55.3303C8.94 55.3303 2 48.4116 2 39.8777C2 31.3439 8.94 24.4251 17.5 24.4251C26.06 24.4251 33 31.3439 33 39.8777Z" fill="#A6D9D6"/>
<path d="M17.25 56.3273C8.015 56.3273 0.5 48.8352 0.5 39.6285C0.5 30.4217 8.015 22.9297 17.25 22.9297C26.485 22.9297 34 30.4217 34 39.6285C34 48.8352 26.485 56.3273 17.25 56.3273ZM17.25 25.422C9.395 25.422 3 31.7975 3 39.6285C3 47.4595 9.395 53.8349 17.25 53.8349C25.11 53.8349 31.5 47.4595 31.5 39.6285C31.5 31.7975 25.11 25.422 17.25 25.422Z" fill="#5EBAB6"/>
<path d="M29.0713 41.1473C29.9978 34.5525 25.3863 28.4575 18.7712 27.5338C12.1561 26.6102 6.04243 31.2076 5.11593 37.8024C4.18943 44.3973 8.80095 50.4923 15.416 51.4159C22.0311 52.3396 28.1448 47.7422 29.0713 41.1473Z" fill="#A6D9D6"/>
<path d="M17.25 56.3273C8.015 56.3273 0.5 48.8352 0.5 39.6285C0.5 30.4217 8.015 22.9297 17.25 22.9297C26.485 22.9297 34 30.4217 34 39.6285C34 48.8352 26.485 56.3273 17.25 56.3273ZM17.25 25.422C9.395 25.422 3 31.7975 3 39.6285C3 47.4595 9.395 53.8349 17.25 53.8349C25.11 53.8349 31.5 47.4595 31.5 39.6285C31.5 31.7975 25.11 25.422 17.25 25.422Z" fill="#5EBAB6"/>
<path d="M29.0713 41.1473C29.9978 34.5525 25.3863 28.4575 18.7712 27.5338C12.1561 26.6102 6.04243 31.2076 5.11593 37.8024C4.18943 44.3973 8.80095 50.4923 15.416 51.4159C22.0311 52.3396 28.1448 47.7422 29.0713 41.1473Z" fill="#A6D9D6"/>
<path d="M17.345 52.5289C10.26 52.5289 4.5 46.7865 4.5 39.7232C4.5 32.6598 10.26 26.9174 17.345 26.9174C24.43 26.9174 30.19 32.6598 30.19 39.7232C30.19 46.7865 24.43 52.5289 17.345 52.5289ZM17.345 28.4129C11.09 28.4129 6 33.4873 6 39.7232C6 45.9591 11.09 51.0335 17.345 51.0335C23.6 51.0335 28.69 45.9591 28.69 39.7232C28.69 33.4873 23.6 28.4129 17.345 28.4129Z" fill="#5EBAB6"/>
<path d="M53.1295 57.4911L53.2741 57.9651L53.7388 58.1371L59.7794 60.373L53.7418 62.608L53.2723 62.7818L53.1301 63.2618L50.8766 70.8705L48.6233 63.2625L48.4811 62.7825L48.0116 62.6087L41.9733 60.3733L48.0153 58.1371L48.4801 57.9651L48.6247 57.491L50.8767 50.1078L53.1295 57.4911ZM51.1161 71.6793C51.1162 71.6795 51.1162 71.6797 51.1163 71.6799L51.1163 71.6798L51.1161 71.6793Z" fill="#A6D9D6" stroke="#5EBAB6" stroke-width="2"/>
<path d="M45.5868 68.3894L45.5894 68.3904C45.6372 68.4078 45.6785 68.4394 45.7077 68.4811C45.7369 68.5228 45.7525 68.5724 45.7525 68.6232C45.7525 68.6741 45.7369 68.7237 45.7077 68.7654C45.6785 68.807 45.6372 68.8387 45.5894 68.8561L45.5865 68.8572L43.8607 69.4969L43.6135 69.5886L43.5495 69.8443L42.8693 72.5608L42.8692 72.5609C42.8557 72.615 42.8245 72.663 42.7806 72.6973C42.7367 72.7316 42.6825 72.7503 42.6268 72.7503C42.5711 72.7503 42.5169 72.7317 42.473 72.6975C42.4291 72.6633 42.3979 72.6154 42.3843 72.5614C42.3843 72.5614 42.3842 72.5613 42.3842 72.5612L41.7041 69.845L41.64 69.5893L41.3928 69.4977L39.6671 68.8579L39.6666 68.8577C39.6187 68.84 39.5773 68.8081 39.5481 68.7661C39.5189 68.7242 39.5033 68.6743 39.5033 68.6232C39.5033 68.5722 39.5189 68.5223 39.5481 68.4804C39.5773 68.4384 39.6187 68.4065 39.6666 68.3888L39.6668 68.3887L41.4016 67.7467L41.6427 67.6574L41.7104 67.4093L42.3854 64.9343L42.3862 64.9315C42.4003 64.8785 42.4315 64.8317 42.4749 64.7983C42.5184 64.765 42.5716 64.7469 42.6264 64.7469C42.6812 64.747 42.7345 64.7651 42.7779 64.7985C42.8213 64.8319 42.8524 64.8788 42.8665 64.9317L42.8674 64.9351L43.5424 67.4101L43.6101 67.6582L43.8513 67.7474L45.5868 68.3894ZM42.3332 52.1422L42.3335 52.1422C42.3814 52.16 42.4227 52.1919 42.4519 52.2339C42.4811 52.2758 42.4968 52.3257 42.4968 52.3767C42.4968 52.4278 42.4811 52.4777 42.4519 52.5196C42.4227 52.5616 42.3814 52.5935 42.3335 52.6112L42.3333 52.6113L40.5595 53.2676L40.3439 53.3473L40.2641 53.563L39.6078 55.3368L39.6078 55.3369C39.5901 55.3849 39.5581 55.4262 39.5162 55.4554C39.4742 55.4846 39.4244 55.5003 39.3733 55.5003C39.3222 55.5003 39.2723 55.4846 39.2304 55.4554C39.1885 55.4262 39.1565 55.3849 39.1388 55.3369L39.1387 55.3368L38.4825 53.563L38.4027 53.3473L38.187 53.2676L36.4133 52.6113L36.4131 52.6112C36.3652 52.5935 36.3238 52.5616 36.2946 52.5196C36.2654 52.4777 36.2498 52.4278 36.2498 52.3767C36.2498 52.3257 36.2654 52.2758 36.2946 52.2339C36.3238 52.1919 36.3652 52.16 36.4131 52.1422L36.4133 52.1422L38.187 51.4859L38.4027 51.4061L38.4825 51.1905L39.1387 49.4167L39.1387 49.4167L39.1392 49.4153C39.1568 49.3673 39.1887 49.326 39.2305 49.2967C39.2724 49.2675 39.3222 49.2518 39.3733 49.2518C39.4243 49.2518 39.4742 49.2675 39.516 49.2967C39.5579 49.326 39.5897 49.3673 39.6073 49.4153L39.6073 49.4153L39.6079 49.4169L40.2649 51.1907L40.3447 51.4061L40.5602 51.4859L42.3332 52.1422Z" fill="#A6D9D6" stroke="#5EBAB6"/>
</svg>
